<svg xmlns="http://www.w3.org/2000/svg" xmlns:xlink="http://www.w3.org/1999/xlink" width="0" height="0" style="position:absolute">

    <symbol id="icon-facebook" viewBox="0 0 32 32">
        <path stroke="#449FDB" d="M0 0"/><path d="M0 24.57V7.43q0-2.125 1.51-3.634t3.633-1.51h17.143q2.125 0 3.634 1.51t1.51 3.634V24.57q0 2.126-1.51 3.635t-3.634 1.51h-3.43V18.856h3.626l.536-4h-4.16v-2.554q0-.964.5-1.482t1.713-.517l2.358-.018V6.59q-1.714-.162-3.214-.162-2.43 0-3.893 1.438t-1.463 4.027v2.964h-4v4h4v10.857H5.143q-2.125 0-3.634-1.51T0 24.572z"/>
    </symbol>

    <symbol id="icon-google-plus" viewBox="0 0 32 32">
        <path stroke="#449FDB" d="M0 0"/><path d="M17.47 2H9.1C5.344 2 1.81 4.844 1.81 8.138c0 3.366 2.56 6.083 6.38 6.083.265 0 .523-.004.775-.023-.248.475-.425 1.01-.425 1.564 0 .937.503 1.695 1.14 2.314-.48 0-.945.014-1.452.014-4.65 0-8.228 2.96-8.228 6.032 0 3.024 3.923 4.916 8.573 4.916 5.3 0 8.228-3.008 8.228-6.032 0-2.425-.714-3.877-2.927-5.442-.757-.536-2.204-1.84-2.204-2.604 0-.897.255-1.34 1.606-2.395C14.66 11.48 15.64 9.96 15.64 8.19c0-2.105-.937-4.158-2.698-4.836h2.655L17.47 2zm-2.924 20.483c.066.28.103.57.103.863 0 2.444-1.576 4.353-6.094 4.353-3.214 0-5.535-2.036-5.535-4.48 0-2.394 2.88-4.388 6.094-4.353.75.008 1.45.13 2.083.334 1.745 1.214 2.996 1.9 3.35 3.282zM9.4 13.368c-2.156-.065-4.206-2.413-4.58-5.246s1.075-5 3.232-4.937c2.157.065 4.207 2.338 4.58 5.17s-1.075 5.078-3.23 5.013zM26 8V2h-2v6h-6v2h6v6h2v-6h6V8z"/>
    </symbol>

    <symbol id="icon-twitter" viewBox="0 0 30 32">
        <path stroke="#449FDB" d="M0 0"/><path d="M.786 24.84q.625.07 1.393.07 4.017 0 7.16-2.464-1.875-.036-3.357-1.152t-2.036-2.848q.59.09 1.09.09.767 0 1.517-.197-2-.412-3.313-1.992t-1.312-3.67v-.07q1.214.678 2.607.73-1.18-.785-1.875-2.053t-.696-2.75q0-1.57.786-2.91 2.16 2.66 5.26 4.258t6.633 1.777q-.143-.68-.143-1.32 0-2.394 1.688-4.08t4.08-1.69q2.5 0 4.214 1.822 1.946-.375 3.66-1.393-.66 2.053-2.535 3.178 1.66-.18 3.32-.893-1.195 1.75-2.892 2.982.018.25.018.75 0 2.32-.68 4.634t-2.062 4.44-3.294 3.758-4.607 2.607-5.77.973q-4.838 0-8.856-2.59z"/>
    </symbol>
</svg>